<svg width="1169" height="244" viewBox="0 0 1169 244" fill="none" xmlns="http://www.w3.org/2000/svg">
<path d="M66.5 0L124.091 33.25V99.75L66.5 133L8.90931 99.75V33.25L66.5 0Z" fill="white"/>
<path d="M194.5 0L252.091 33.25V99.75L194.5 133L136.909 99.75V33.25L194.5 0Z" fill="white"/>
<path d="M130.5 110L188.091 143.5V210.5L130.5 244L72.9093 210.5V143.5L130.5 110Z" fill="white"/>
<path d="M356.251 187V57.5455H383.621V110.958H439.183V57.5455H466.49V187H439.183V133.524H383.621V187H356.251ZM488.55 187V89.9091H515.478V187H488.55ZM502.077 77.3935C498.074 77.3935 494.64 76.066 491.774 73.4112C488.951 70.7142 487.539 67.4905 487.539 63.7401C487.539 60.0317 488.951 56.8501 491.774 54.1953C494.64 51.4983 498.074 50.1499 502.077 50.1499C506.081 50.1499 509.494 51.4983 512.317 54.1953C515.183 56.8501 516.616 60.0317 516.616 63.7401C516.616 67.4905 515.183 70.7142 512.317 73.4112C509.494 76.066 506.081 77.3935 502.077 77.3935ZM627.566 89.9091L593.622 187H563.281L529.337 89.9091H557.781L577.945 159.377H578.957L599.058 89.9091H627.566ZM682.464 188.896C672.476 188.896 663.88 186.874 656.674 182.828C649.51 178.741 643.99 172.967 640.113 165.509C636.236 158.008 634.297 149.137 634.297 138.897C634.297 128.91 636.236 120.145 640.113 112.602C643.99 105.058 649.447 99.1799 656.484 94.9659C663.564 90.7519 671.865 88.6449 681.389 88.6449C687.794 88.6449 693.757 89.6773 699.278 91.7422C704.84 93.7649 709.686 96.8201 713.816 100.908C717.988 104.995 721.233 110.136 723.55 116.331C725.868 122.483 727.027 129.689 727.027 137.949V145.344H645.043V128.657H701.68C701.68 124.78 700.837 121.346 699.151 118.354C697.465 115.362 695.127 113.023 692.135 111.337C689.185 109.61 685.751 108.746 681.832 108.746C677.744 108.746 674.12 109.694 670.959 111.59C667.841 113.444 665.397 115.952 663.627 119.112C661.857 122.231 660.951 125.707 660.909 129.542V145.408C660.909 150.212 661.794 154.362 663.564 157.86C665.376 161.358 667.925 164.055 671.212 165.951C674.499 167.847 678.397 168.795 682.906 168.795C685.898 168.795 688.637 168.374 691.123 167.531C693.61 166.688 695.738 165.424 697.508 163.739C699.278 162.053 700.626 159.988 701.553 157.544L726.458 159.188C725.194 165.171 722.602 170.397 718.683 174.864C714.806 179.288 709.791 182.744 703.639 185.23C697.529 187.674 690.47 188.896 682.464 188.896ZM744.599 187V89.9091H770.263V107.039H771.4C773.423 101.35 776.794 96.8622 781.514 93.5753C786.234 90.2884 791.881 88.6449 798.454 88.6449C805.113 88.6449 810.78 90.3094 815.458 93.6385C820.135 96.9254 823.254 101.392 824.813 107.039H825.824C827.805 101.477 831.387 97.0308 836.57 93.7017C841.796 90.3305 847.969 88.6449 855.091 88.6449C864.151 88.6449 871.504 91.5315 877.151 97.3047C882.84 103.036 885.684 111.169 885.684 121.704V187H858.82V127.013C858.82 121.62 857.387 117.574 854.522 114.877C851.656 112.18 848.074 110.832 843.776 110.832C838.888 110.832 835.074 112.391 832.335 115.509C829.596 118.585 828.226 122.652 828.226 127.709V187H802.121V126.445C802.121 121.683 800.751 117.89 798.012 115.067C795.315 112.243 791.754 110.832 787.329 110.832C784.337 110.832 781.64 111.59 779.238 113.107C776.879 114.582 775.003 116.668 773.613 119.365C772.222 122.02 771.527 125.138 771.527 128.72V187H744.599ZM906.955 187V89.9091H933.882V187H906.955ZM920.482 77.3935C916.478 77.3935 913.044 76.066 910.178 73.4112C907.355 70.7142 905.943 67.4905 905.943 63.7401C905.943 60.0317 907.355 56.8501 910.178 54.1953C913.044 51.4983 916.478 50.1499 920.482 50.1499C924.485 50.1499 927.898 51.4983 930.722 54.1953C933.587 56.8501 935.02 60.0317 935.02 63.7401C935.02 67.4905 933.587 70.7142 930.722 73.4112C927.898 76.066 924.485 77.3935 920.482 77.3935ZM982.38 130.869V187H955.453V89.9091H981.116V107.039H982.254C984.403 101.392 988.006 96.9254 993.063 93.6385C998.12 90.3094 1004.25 88.6449 1011.46 88.6449C1018.2 88.6449 1024.08 90.1198 1029.09 93.0696C1034.11 96.0194 1038.01 100.233 1040.79 105.712C1043.57 111.148 1044.96 117.637 1044.96 125.18V187H1018.03V129.984C1018.07 124.043 1016.56 119.407 1013.48 116.078C1010.4 112.707 1006.17 111.021 1000.77 111.021C997.15 111.021 993.948 111.801 991.167 113.36C988.427 114.919 986.278 117.195 984.719 120.187C983.202 123.137 982.422 126.697 982.38 130.869ZM1101.96 188.58C1094.58 188.58 1087.9 186.684 1081.92 182.891C1075.98 179.057 1071.26 173.431 1067.76 166.014C1064.31 158.555 1062.58 149.411 1062.58 138.581C1062.58 127.456 1064.37 118.206 1067.95 110.832C1071.53 103.415 1076.29 97.8736 1082.24 94.2074C1088.22 90.4991 1094.77 88.6449 1101.9 88.6449C1107.33 88.6449 1111.86 89.572 1115.49 91.4261C1119.15 93.2382 1122.1 95.5137 1124.33 98.2528C1126.61 100.95 1128.34 103.605 1129.52 106.217H1130.34V57.5455H1157.2V187H1130.66V171.45H1129.52C1128.25 174.147 1126.46 176.823 1124.15 179.478C1121.87 182.091 1118.9 184.261 1115.23 185.989C1111.61 187.716 1107.18 188.58 1101.96 188.58ZM1110.49 167.152C1114.83 167.152 1118.5 165.972 1121.49 163.612C1124.52 161.21 1126.84 157.86 1128.44 153.562C1130.09 149.263 1130.91 144.228 1130.91 138.455C1130.91 132.681 1130.11 127.667 1128.51 123.411C1126.91 119.154 1124.59 115.867 1121.55 113.55C1118.52 111.232 1114.83 110.073 1110.49 110.073C1106.07 110.073 1102.34 111.274 1099.3 113.676C1096.27 116.078 1093.97 119.407 1092.41 123.663C1090.85 127.92 1090.07 132.85 1090.07 138.455C1090.07 144.101 1090.85 149.095 1092.41 153.435C1094.01 157.734 1096.31 161.105 1099.3 163.549C1102.34 165.951 1106.07 167.152 1110.49 167.152Z" fill="white"/>
</svg>
